<svg id="Layer_5" enable-background="new 0 0 64 64" height="512" viewBox="0 0 64 64" width="512" xmlns="http://www.w3.org/2000/svg"><path d="m40 5c-10.477 0-19 8.523-19 19s8.523 19 19 19 19-8.523 19-19-8.523-19-19-19zm0 36c-9.374 0-17-7.626-17-17s7.626-17 17-17 17 7.626 17 17-7.626 17-17 17z"/><path d="m8 53c-1.654 0-3 1.346-3 3s1.346 3 3 3 3-1.346 3-3-1.346-3-3-3zm0 4c-.551 0-1-.448-1-1s.449-1 1-1 1 .448 1 1-.449 1-1 1z"/><path d="m46.999 25c-.993 0-1.952.291-2.772.84l-2.673 1.781c-1.352.902-2.927 1.379-4.554 1.379-2.757 0-5 2.243-5 5s2.243 5 5 5c3.607 0 7.1-1.058 10.102-3.059l2.671-1.781c1.11-.739 1.866-1.869 2.128-3.18s-.001-2.645-.742-3.756c-.93-1.392-2.485-2.224-4.16-2.224zm2.94 5.588c-.157.787-.61 1.464-1.276 1.908l-2.671 1.781c-2.672 1.782-5.781 2.723-8.992 2.723-1.654 0-3-1.346-3-3s1.346-3 3-3c2.024 0 3.982-.593 5.664-1.715l2.674-1.782c.491-.33 1.065-.503 1.661-.503 1.006 0 1.939.499 2.497 1.335.443.665.601 1.466.443 2.253z"/><circle cx="37" cy="34" r="1"/><circle cx="47" cy="30" r="1"/><circle cx="41" cy="34" r="1"/><circle cx="43" cy="31" r="1"/><circle cx="31" cy="21" r="1"/><circle cx="29" cy="25" r="1"/><path d="m53.901 17.02c-.262-1.311-1.018-2.44-2.128-3.18l-2.671-1.781c-3.002-2.001-6.495-3.059-10.102-3.059-2.757 0-5 2.243-5 5s2.243 5 5 5c1.627 0 3.202.477 4.554 1.379l2.67 1.78c.822.55 1.782.841 2.775.841 1.676 0 3.231-.832 4.161-2.226.739-1.11 1.003-2.443.741-3.754zm-2.406 2.645c-.557.836-1.491 1.335-2.496 1.335-.595 0-1.169-.174-1.663-.504l-2.672-1.781c-1.682-1.122-3.64-1.715-5.664-1.715-1.654 0-3-1.346-3-3s1.346-3 3-3c3.211 0 6.32.941 8.992 2.723l2.671 1.781c.666.443 1.119 1.121 1.276 1.908.158.787 0 1.588-.444 2.253z"/><circle cx="39" cy="14" r="1"/><circle cx="49" cy="18" r="1"/><circle cx="43" cy="14" r="1"/><circle cx="45" cy="17" r="1"/><path d="m35 25v-4c0-2.757-2.243-5-5-5s-5 2.243-5 5v4c0 2.757 2.243 5 5 5s5-2.243 5-5zm-2 0c0 1.654-1.346 3-3 3s-3-1.346-3-3v-4c0-1.654 1.346-3 3-3s3 1.346 3 3z"/><path d="m5 11h12v2h-12z"/><path d="m5 15h12v2h-12z"/><path d="m5 19h2v2h-2z"/><path d="m9 19h2v2h-2z"/><path d="m13 19h2v2h-2z"/><path d="m63 24c0-12.682-10.318-23-23-23-5.954 0-11.387 2.275-15.475 6h-20.525c-1.654 0-3 1.346-3 3v12c0 1.654 1.346 3 3 3h3.465l3.316 4.975c.428.642 1.145 1.025 1.916 1.025 1.27 0 2.303-1.033 2.303-2.303v-3.697h2.025c.175 4.068 1.412 7.865 3.44 11.121l-2.965 2.965-1.5-1.5-12.839 12.839c-1.39 1.39-2.156 3.237-2.157 5.202-.001 1.969.765 3.82 2.157 5.212 1.391 1.392 3.24 2.157 5.208 2.157h.004c1.964-.001 3.812-.768 5.203-2.157l12.838-12.839-1.5-1.5 2.965-2.965c.993.618 2.035 1.166 3.121 1.629v9.836c0 1.654 1.346 3 3 3s3-1.346 3-3v-3c0-.552.449-1 1-1s1 .448 1 1v8c0 1.654 1.346 3 3 3s3-1.346 3-3v-6c0-.552.449-1 1-1s1 .448 1 1v2c0 1.654 1.346 3 3 3s3-1.346 3-3v-13.04c6.034-4.15 10-11.099 10-18.96zm-50-1v5.697c0 .268-.406.392-.555.168l-3.91-5.865h-4.535c-.551 0-1-.449-1-1v-12c0-.551.449-1 1-1h18.586c-3.273 3.795-5.331 8.663-5.561 14zm-.839 36.425c-1.013 1.013-2.359 1.57-3.79 1.571-.001 0-.002 0-.003 0-1.433 0-2.78-.558-3.793-1.571-1.014-1.014-1.572-2.362-1.571-3.796.001-1.432.559-2.778 1.571-3.79l11.425-11.425 7.586 7.586zm11.339-14.339-4.586-4.586 2.699-2.699c1.306 1.735 2.851 3.28 4.586 4.586zm27.5 10.914c0 .552-.449 1-1 1s-1-.448-1-1v-2c0-1.654-1.346-3-3-3s-3 1.346-3 3v6c0 .552-.449 1-1 1s-1-.448-1-1v-8c0-1.654-1.346-3-3-3s-3 1.346-3 3v3c0 .552-.449 1-1 1s-1-.448-1-1v-9.093c2.209.708 4.56 1.093 7 1.093 3.982 0 7.73-1.018 11-2.806zm-11-11c-11.58 0-21-9.421-21-21 0-11.58 9.42-21 21-21s21 9.42 21 21c0 11.579-9.42 21-21 21z"/></svg>